<?xml version="1.0" encoding="UTF-8"?>
<svg id="Layer_1" data-name="Layer 1" xmlns="http://www.w3.org/2000/svg" xmlns:xlink="http://www.w3.org/1999/xlink" viewBox="0 0 537.45 486.36">
  <defs>
    <style>
      .cls-1 {
        filter: url(#drop-shadow-67);
      }

      .cls-1, .cls-2, .cls-3, .cls-4, .cls-5, .cls-6, .cls-7, .cls-8 {
        fill: #fff;
      }

      .cls-2 {
        filter: url(#drop-shadow-61);
        stroke: #0a7f68;
        stroke-width: 2.58px;
      }

      .cls-2, .cls-9, .cls-10, .cls-11 {
        stroke-miterlimit: 10;
      }

      .cls-3 {
        filter: url(#drop-shadow-62);
      }

      .cls-9 {
        stroke: #fff;
        stroke-width: 1.43px;
      }

      .cls-9, .cls-10, .cls-11 {
        fill: none;
        stroke-linecap: round;
      }

      .cls-10 {
        stroke-width: 1.72px;
      }

      .cls-10, .cls-11 {
        stroke: #171717;
      }

      .cls-4 {
        filter: url(#drop-shadow-64);
      }

      .cls-5 {
        filter: url(#drop-shadow-63);
      }

      .cls-6 {
        filter: url(#drop-shadow-68);
      }

      .cls-12 {
        fill: #eaeaea;
      }

      .cls-13 {
        fill: #0a7f68;
      }

      .cls-14 {
        fill: #171717;
      }

      .cls-7 {
        filter: url(#drop-shadow-66);
      }

      .cls-15 {
        fill: #0a817a;
      }

      .cls-8 {
        filter: url(#drop-shadow-65);
      }

      .cls-11 {
        stroke-width: 2.98px;
      }

      .cls-16 {
        fill: #231f20;
      }
    </style>
    <filter id="drop-shadow-61" filterUnits="userSpaceOnUse">
      <feOffset dx="0" dy="0"/>
      <feGaussianBlur result="blur" stdDeviation="9.31"/>
      <feFlood flood-color="#231f20" flood-opacity=".15"/>
      <feComposite in2="blur" operator="in"/>
      <feComposite in="SourceGraphic"/>
    </filter>
    <filter id="drop-shadow-62" filterUnits="userSpaceOnUse">
      <feOffset dx="0" dy="0"/>
      <feGaussianBlur result="blur-2" stdDeviation="7.68"/>
      <feFlood flood-color="#231f20" flood-opacity=".15"/>
      <feComposite in2="blur-2" operator="in"/>
      <feComposite in="SourceGraphic"/>
    </filter>
    <filter id="drop-shadow-63" filterUnits="userSpaceOnUse">
      <feOffset dx="0" dy="0"/>
      <feGaussianBlur result="blur-3" stdDeviation="7"/>
      <feFlood flood-color="#231f20" flood-opacity=".15"/>
      <feComposite in2="blur-3" operator="in"/>
      <feComposite in="SourceGraphic"/>
    </filter>
    <filter id="drop-shadow-64" filterUnits="userSpaceOnUse">
      <feOffset dx="0" dy="0"/>
      <feGaussianBlur result="blur-4" stdDeviation="7"/>
      <feFlood flood-color="#231f20" flood-opacity=".15"/>
      <feComposite in2="blur-4" operator="in"/>
      <feComposite in="SourceGraphic"/>
    </filter>
    <filter id="drop-shadow-65" filterUnits="userSpaceOnUse">
      <feOffset dx="0" dy="0"/>
      <feGaussianBlur result="blur-5" stdDeviation="7"/>
      <feFlood flood-color="#231f20" flood-opacity=".15"/>
      <feComposite in2="blur-5" operator="in"/>
      <feComposite in="SourceGraphic"/>
    </filter>
    <filter id="drop-shadow-66" filterUnits="userSpaceOnUse">
      <feOffset dx="0" dy="0"/>
      <feGaussianBlur result="blur-6" stdDeviation="6.87"/>
      <feFlood flood-color="#231f20" flood-opacity=".15"/>
      <feComposite in2="blur-6" operator="in"/>
      <feComposite in="SourceGraphic"/>
    </filter>
    <filter id="drop-shadow-67" filterUnits="userSpaceOnUse">
      <feOffset dx="0" dy="0"/>
      <feGaussianBlur result="blur-7" stdDeviation="10.71"/>
      <feFlood flood-color="#231f20" flood-opacity=".15"/>
      <feComposite in2="blur-7" operator="in"/>
      <feComposite in="SourceGraphic"/>
    </filter>
    <filter id="drop-shadow-68" filterUnits="userSpaceOnUse">
      <feOffset dx="0" dy="0"/>
      <feGaussianBlur result="blur-8" stdDeviation="11.94"/>
      <feFlood flood-color="#231f20" flood-opacity=".15"/>
      <feComposite in2="blur-8" operator="in"/>
      <feComposite in="SourceGraphic"/>
    </filter>
  </defs>
  <rect class="cls-2" x="18.63" y="22.62" width="306.61" height="86.25" rx="14.17" ry="14.17"/>
  <rect class="cls-3" x="18.63" y="122.3" width="306.61" height="58.74" rx="14.17" ry="14.17"/>
  <rect class="cls-5" x="342.07" y="22.62" width="173.14" height="86.25" rx="14.17" ry="14.17"/>
  <rect class="cls-4" x="341.92" y="122.3" width="173.14" height="86.25" rx="14.17" ry="14.17"/>
  <rect class="cls-8" x="341.92" y="222.45" width="173.14" height="86.25" rx="14.17" ry="14.17"/>
  <rect class="cls-7" x="341.92" y="322.6" width="173.14" height="83.1" rx="14.17" ry="14.17"/>
  <path class="cls-13" d="m427.32,38.69c-1.82-1.72-4.22-2.58-7.2-2.58s-5.32.87-7.14,2.62c-1.82,1.74-2.73,4.01-2.73,6.81v2.22c0,2.92.91,5.25,2.74,6.97,1.83,1.72,4.22,2.58,7.19,2.58s5.32-.86,7.14-2.57c1.82-1.71,2.72-3.98,2.72-6.79v-2.25c0-2.95-.91-5.28-2.72-7Zm-3.32,9.16c0,1.3-.35,2.33-1.03,3.1-.69.77-1.62,1.16-2.79,1.16s-2.11-.38-2.83-1.14c-.72-.76-1.08-1.77-1.08-3.02v-2.29c0-1.36.36-2.42,1.07-3.18.71-.76,1.64-1.14,2.79-1.14,1.21,0,2.16.39,2.85,1.16.69.77,1.03,1.79,1.03,3.04v2.32Z"/>
  <polygon class="cls-16" points="421.97 78.95 417.55 76.57 439.82 40.93 444.23 43.31 421.97 78.95"/>
  <path class="cls-13" d="m449.14,64.34c-1.83-1.7-4.22-2.55-7.19-2.55s-5.3.86-7.14,2.58c-1.84,1.72-2.76,3.99-2.76,6.81v2.32c0,2.86.91,5.16,2.73,6.89,1.82,1.73,4.23,2.6,7.23,2.6s5.37-.86,7.17-2.58c1.79-1.72,2.69-3.98,2.69-6.78v-2.25c0-2.99-.91-5.33-2.74-7.03Zm-3.3,9.22c0,2.82-1.27,4.23-3.82,4.23-1.13,0-2.07-.41-2.82-1.22-.75-.81-1.13-1.79-1.13-2.94v-2.35c0-1.32.36-2.35,1.07-3.11.71-.76,1.65-1.14,2.82-1.14s2.11.38,2.82,1.14c.71.76,1.06,1.77,1.06,3.02v2.38Z"/>
  <g>
    <path class="cls-16" d="m39.61,137.4l1.78-3.85h1.93l-2.81,5.45v3.1h-1.79v-3.1l-2.81-5.45h1.93l1.77,3.85Z"/>
    <path class="cls-16" d="m43.34,138.86c0-.63.12-1.19.36-1.69.24-.49.59-.88,1.05-1.15.46-.27.99-.41,1.59-.41.86,0,1.56.26,2.1.79.54.52.84,1.24.91,2.14v.43c.01.98-.26,1.76-.8,2.35s-1.27.88-2.19.88-1.65-.29-2.19-.88-.82-1.39-.82-2.4v-.08Zm1.7.12c0,.6.11,1.07.34,1.39s.55.48.98.48.73-.16.96-.47.35-.82.35-1.51c0-.59-.12-1.05-.35-1.38-.23-.33-.56-.49-.98-.49s-.74.16-.96.49c-.23.32-.34.82-.34,1.5Z"/>
    <path class="cls-16" d="m54.22,141.45c-.42.51-1,.76-1.74.76-.68,0-1.2-.2-1.56-.59-.36-.39-.54-.97-.55-1.72v-4.16h1.7v4.11c0,.66.3.99.9.99s.97-.2,1.19-.6v-4.5h1.7v6.36h-1.6l-.05-.65Z"/>
    <path class="cls-16" d="m60.71,137.34c-.23-.03-.43-.05-.61-.05-.64,0-1.06.22-1.26.65v4.16h-1.7v-6.36h1.6l.05.76c.34-.58.81-.88,1.42-.88.19,0,.36.03.53.08l-.02,1.63Z"/>
    <path class="cls-16" d="m69.46,140.34h-3.09l-.59,1.76h-1.87l3.18-8.55h1.63l3.2,8.55h-1.87l-.59-1.76Zm-2.61-1.43h2.14l-1.07-3.2-1.06,3.2Z"/>
    <path class="cls-16" d="m73.9,135.75l.05.73c.45-.57,1.06-.85,1.83-.85.67,0,1.17.2,1.5.59.33.4.5.99.51,1.77v4.11h-1.7v-4.06c0-.36-.08-.62-.23-.78s-.42-.24-.78-.24c-.48,0-.84.2-1.07.61v4.48h-1.7v-6.36h1.6Z"/>
    <path class="cls-16" d="m82.51,140.34c0-.21-.1-.37-.31-.49-.21-.12-.54-.23-.99-.32-1.51-.32-2.27-.96-2.27-1.93,0-.56.23-1.03.7-1.41s1.08-.57,1.84-.57c.81,0,1.45.19,1.94.57.48.38.73.87.73,1.48h-1.7c0-.24-.08-.44-.23-.6s-.4-.24-.73-.24c-.29,0-.51.06-.66.19-.16.13-.23.29-.23.49,0,.19.09.34.27.46s.48.22.9.3c.42.08.78.18,1.07.28.9.33,1.35.9,1.35,1.71,0,.58-.25,1.05-.75,1.41-.5.36-1.14.54-1.93.54-.53,0-1.01-.1-1.42-.29-.41-.19-.74-.45-.97-.78-.23-.33-.35-.69-.35-1.07h1.61c.02.3.13.53.33.69.21.16.49.24.83.24.32,0,.57-.06.74-.18.17-.12.25-.29.25-.48Z"/>
    <path class="cls-16" d="m90.78,139.79l.83-4.05h1.64l-1.62,6.36h-1.42l-1.2-4-1.2,4h-1.42l-1.62-6.36h1.64l.83,4.04,1.16-4.04h1.23l1.16,4.05Z"/>
    <path class="cls-16" d="m97.02,142.22c-.93,0-1.69-.29-2.28-.86-.59-.57-.88-1.33-.88-2.28v-.16c0-.64.12-1.21.37-1.71.25-.5.6-.89,1.05-1.16s.97-.41,1.55-.41c.87,0,1.55.27,2.05.82.5.55.75,1.33.75,2.33v.69h-4.05c.05.41.22.75.5,1s.63.38,1.05.38c.65,0,1.16-.24,1.53-.71l.83.93c-.25.36-.6.64-1.03.84-.43.2-.92.3-1.44.3Zm-.19-5.22c-.34,0-.61.11-.82.34-.21.23-.34.55-.4.98h2.36v-.14c0-.38-.11-.67-.31-.88-.2-.21-.47-.31-.83-.31Z"/>
    <path class="cls-16" d="m104.17,137.34c-.23-.03-.43-.05-.61-.05-.64,0-1.06.22-1.26.65v4.16h-1.7v-6.36h1.6l.05.76c.34-.58.81-.88,1.42-.88.19,0,.36.03.53.08l-.02,1.63Z"/>
  </g>
  <rect class="cls-1" x="18.63" y="194.47" width="306.61" height="114.22" rx="14.17" ry="14.17"/>
  <g>
    <path class="cls-16" d="m41.49,212.51h-3.09l-.59,1.76h-1.87l3.18-8.55h1.63l3.2,8.55h-1.87l-.59-1.76Zm-2.61-1.43h2.14l-1.07-3.2-1.06,3.2Z"/>
    <path class="cls-16" d="m46.63,214.27h-1.76v-8.55h1.76v8.55Z"/>
    <path class="cls-16" d="m57.35,207.15h-2.62v7.12h-1.76v-7.12h-2.58v-1.43h6.97v1.43Z"/>
    <path class="cls-16" d="m61.66,213.63c-.42.51-1,.76-1.74.76-.68,0-1.2-.2-1.56-.59-.36-.39-.54-.97-.55-1.72v-4.16h1.7v4.11c0,.66.3.99.9.99s.97-.2,1.19-.6v-4.5h1.7v6.36h-1.6l-.05-.65Z"/>
    <path class="cls-16" d="m66.62,206.36v1.56h1.09v1.25h-1.09v3.17c0,.23.04.4.14.51s.26.15.52.15c.19,0,.35-.01.5-.04v1.29c-.33.1-.68.15-1.03.15-1.19,0-1.8-.6-1.82-1.8v-3.42h-.93v-1.25h.93v-1.56h1.7Z"/>
    <path class="cls-16" d="m68.21,211.04c0-.63.12-1.19.36-1.69.24-.49.59-.88,1.05-1.15.46-.27.99-.41,1.59-.41.86,0,1.56.26,2.1.79.54.52.84,1.24.91,2.14v.43c.01.98-.26,1.76-.8,2.35s-1.27.88-2.19.88-1.65-.29-2.19-.88-.82-1.39-.82-2.4v-.08Zm1.7.12c0,.6.11,1.07.34,1.39s.55.48.98.48.73-.16.96-.47.35-.82.35-1.51c0-.59-.12-1.05-.35-1.38-.23-.33-.56-.49-.98-.49s-.74.16-.96.49c-.23.32-.34.82-.34,1.5Z"/>
    <path class="cls-16" d="m78.85,209.51c-.23-.03-.43-.05-.61-.05-.64,0-1.06.22-1.26.65v4.16h-1.7v-6.36h1.6l.05.76c.34-.58.81-.88,1.42-.88.19,0,.36.03.53.08l-.02,1.63Z"/>
    <path class="cls-16" d="m87.92,210.78h-3.38v3.49h-1.76v-8.55h5.57v1.43h-3.81v2.21h3.38v1.42Z"/>
    <path class="cls-16" d="m92.18,214.39c-.93,0-1.69-.29-2.28-.86-.59-.57-.88-1.33-.88-2.28v-.16c0-.64.12-1.21.37-1.71.25-.5.6-.89,1.05-1.16s.97-.41,1.55-.41c.87,0,1.55.27,2.05.82.5.55.75,1.33.75,2.33v.69h-4.05c.05.41.22.75.5,1s.63.38,1.05.38c.65,0,1.16-.24,1.53-.71l.83.93c-.25.36-.6.64-1.03.84-.43.2-.92.3-1.44.3Zm-.19-5.22c-.34,0-.61.11-.82.34-.21.23-.34.55-.4.98h2.36v-.14c0-.38-.11-.67-.31-.88-.2-.21-.47-.31-.83-.31Z"/>
    <path class="cls-16" d="m98.68,214.39c-.93,0-1.69-.29-2.28-.86-.59-.57-.88-1.33-.88-2.28v-.16c0-.64.12-1.21.37-1.71.25-.5.6-.89,1.05-1.16s.97-.41,1.55-.41c.87,0,1.55.27,2.05.82.5.55.75,1.33.75,2.33v.69h-4.05c.05.41.22.75.5,1s.63.38,1.05.38c.65,0,1.16-.24,1.53-.71l.83.93c-.25.36-.6.64-1.03.84-.43.2-.92.3-1.44.3Zm-.19-5.22c-.34,0-.61.11-.82.34-.21.23-.34.55-.4.98h2.36v-.14c0-.38-.11-.67-.31-.88-.2-.21-.47-.31-.83-.31Z"/>
    <path class="cls-16" d="m101.99,211.05c0-.99.22-1.78.67-2.37s1.05-.88,1.82-.88c.62,0,1.13.23,1.53.69v-3.24h1.7v9.02h-1.53l-.08-.68c-.42.53-.97.79-1.63.79-.75,0-1.35-.29-1.8-.88-.45-.59-.68-1.41-.68-2.46Zm1.7.13c0,.6.1,1.05.31,1.37.21.32.51.48.9.48.52,0,.89-.22,1.11-.66v-2.51c-.21-.44-.58-.66-1.1-.66-.82,0-1.23.66-1.23,1.99Z"/>
    <path class="cls-16" d="m114.76,211.15c0,1.02-.22,1.81-.65,2.38s-1.04.85-1.82.85c-.69,0-1.24-.26-1.65-.79l-.08.68h-1.53v-9.02h1.7v3.24c.39-.46.91-.69,1.54-.69.78,0,1.38.28,1.82.85.44.57.66,1.37.66,2.41v.09Zm-1.7-.12c0-.64-.1-1.11-.31-1.41-.2-.3-.51-.44-.91-.44-.54,0-.91.22-1.12.66v2.51c.21.45.58.67,1.13.67s.91-.27,1.08-.81c.08-.26.12-.65.12-1.18Z"/>
    <path class="cls-16" d="m119.49,214.27c-.08-.15-.14-.34-.17-.57-.41.46-.95.69-1.6.69-.62,0-1.14-.18-1.55-.54-.41-.36-.61-.81-.61-1.36,0-.67.25-1.19.75-1.55.5-.36,1.22-.54,2.16-.55h.78v-.36c0-.29-.08-.53-.23-.7-.15-.18-.39-.26-.71-.26-.29,0-.51.07-.67.21s-.24.32-.24.56h-1.7c0-.37.11-.71.34-1.02s.55-.56.96-.74.88-.27,1.4-.27c.78,0,1.4.2,1.86.59.46.39.69.95.69,1.66v2.75c0,.6.09,1.06.25,1.37v.1h-1.71Zm-1.4-1.18c.25,0,.48-.06.69-.17.21-.11.37-.26.47-.45v-1.09h-.63c-.85,0-1.3.29-1.36.88v.1c0,.21.07.39.22.52.15.14.35.21.61.21Z"/>
    <path class="cls-16" d="m124.9,213.02c.31,0,.57-.09.76-.26.2-.17.3-.4.31-.69h1.59c0,.43-.12.83-.35,1.18-.23.36-.55.64-.95.83s-.84.3-1.33.3c-.91,0-1.62-.29-2.15-.87-.52-.58-.79-1.38-.79-2.39v-.11c0-.98.26-1.76.78-2.34.52-.58,1.24-.88,2.14-.88.8,0,1.43.23,1.91.68.48.45.72,1.05.73,1.81h-1.59c0-.33-.11-.6-.31-.81-.2-.21-.45-.31-.78-.31-.4,0-.69.14-.9.43-.2.29-.3.76-.3,1.4v.18c0,.66.1,1.13.3,1.41.2.29.5.43.91.43Z"/>
    <path class="cls-16" d="m130.84,211.72l-.61.61v1.94h-1.7v-9.02h1.7v5l.33-.42,1.63-1.91h2.04l-2.3,2.65,2.5,3.71h-1.95l-1.63-2.55Z"/>
  </g>
  <rect class="cls-6" x="18.63" y="322.1" width="306.61" height="141.94" rx="14.17" ry="14.17"/>
  <g>
    <path class="cls-16" d="m38.97,333.35l2.2,6.2,2.19-6.2h2.31v8.55h-1.77v-2.34l.18-4.03-2.31,6.37h-1.21l-2.3-6.37.18,4.03v2.34h-1.76v-8.55h2.3Z"/>
    <path class="cls-16" d="m50.77,341.91c-.08-.15-.14-.34-.17-.57-.41.46-.95.69-1.6.69-.62,0-1.14-.18-1.55-.54s-.61-.81-.61-1.36c0-.67.25-1.19.75-1.55.5-.36,1.22-.54,2.16-.55h.78v-.36c0-.29-.08-.53-.23-.7-.15-.18-.39-.26-.71-.26-.29,0-.51.07-.67.21-.16.14-.24.32-.24.56h-1.7c0-.37.11-.71.34-1.02s.55-.56.96-.74c.41-.18.88-.27,1.4-.27.78,0,1.4.2,1.86.59.46.39.69.95.69,1.66v2.75c0,.6.09,1.06.25,1.37v.1h-1.71Zm-1.4-1.18c.25,0,.48-.06.69-.17.21-.11.37-.26.47-.45v-1.09h-.63c-.85,0-1.3.29-1.36.88v.1c0,.21.07.39.22.52.15.14.35.21.61.21Z"/>
    <path class="cls-16" d="m57.11,337.14c-.23-.03-.43-.05-.61-.05-.64,0-1.06.22-1.26.65v4.16h-1.7v-6.36h1.6l.05.76c.34-.58.81-.88,1.42-.88.19,0,.36.03.53.08l-.02,1.63Z"/>
    <path class="cls-16" d="m60.24,339.36l-.61.61v1.94h-1.7v-9.02h1.7v5l.33-.42,1.63-1.91h2.04l-2.3,2.65,2.5,3.71h-1.95l-1.63-2.55Z"/>
    <path class="cls-16" d="m71.89,339.66c0-.33-.12-.59-.35-.77s-.66-.37-1.27-.56-1.09-.39-1.45-.58c-.97-.53-1.46-1.23-1.46-2.12,0-.46.13-.87.39-1.24s.63-.65,1.12-.85,1.03-.31,1.64-.31,1.16.11,1.63.33c.48.22.85.53,1.11.94.26.4.4.86.4,1.37h-1.76c0-.39-.12-.7-.37-.91-.25-.22-.59-.33-1.04-.33s-.77.09-1,.27c-.24.18-.36.42-.36.72,0,.28.14.51.42.7.28.19.69.36,1.24.53,1,.3,1.73.68,2.19,1.12.46.45.69,1,.69,1.67,0,.74-.28,1.32-.84,1.74-.56.42-1.31.63-2.26.63-.66,0-1.26-.12-1.8-.36-.54-.24-.95-.57-1.24-.99-.28-.42-.43-.9-.43-1.46h1.77c0,.94.56,1.42,1.69,1.42.42,0,.75-.08.98-.25s.35-.41.35-.71Z"/>
    <path class="cls-16" d="m77.39,340.65c.31,0,.57-.09.76-.26.2-.17.3-.4.31-.69h1.59c0,.43-.12.83-.35,1.18-.23.36-.55.64-.95.83s-.84.3-1.33.3c-.91,0-1.62-.29-2.15-.87s-.79-1.38-.79-2.39v-.11c0-.98.26-1.76.78-2.34.52-.58,1.24-.88,2.14-.88.8,0,1.43.23,1.91.68.48.45.72,1.05.73,1.81h-1.59c0-.33-.11-.6-.31-.81-.2-.21-.45-.31-.78-.31-.4,0-.69.14-.9.43s-.3.76-.3,1.4v.18c0,.66.1,1.13.3,1.41.2.29.5.43.91.43Z"/>
    <path class="cls-16" d="m82.67,336.24c.45-.54,1.02-.81,1.7-.81,1.38,0,2.08.8,2.1,2.4v4.07h-1.7v-4.02c0-.36-.08-.63-.23-.81-.16-.17-.42-.26-.78-.26-.5,0-.86.19-1.08.57v4.52h-1.7v-9.02h1.7v3.36Z"/>
    <path class="cls-16" d="m90.67,342.02c-.93,0-1.69-.29-2.28-.86-.59-.57-.88-1.33-.88-2.28v-.17c0-.64.12-1.21.37-1.71.25-.5.6-.89,1.05-1.16s.97-.41,1.55-.41c.87,0,1.55.28,2.05.82.5.55.75,1.33.75,2.33v.69h-4.05c.05.42.22.75.5,1,.28.25.63.38,1.05.38.65,0,1.16-.24,1.53-.71l.83.93c-.25.36-.6.64-1.03.84s-.92.3-1.44.3Zm-.19-5.22c-.34,0-.61.11-.82.34s-.34.55-.4.98h2.36v-.14c0-.38-.11-.67-.31-.88s-.47-.31-.83-.31Z"/>
    <path class="cls-16" d="m95.84,335.55l.05.71c.45-.55,1.06-.83,1.83-.83.82,0,1.38.32,1.69.97.45-.65,1.08-.97,1.91-.97.69,0,1.2.2,1.54.6.34.4.51,1.01.51,1.81v4.06h-1.7v-4.05c0-.36-.07-.62-.21-.79-.14-.17-.39-.25-.75-.25-.51,0-.86.24-1.06.73v4.36s-1.69,0-1.69,0v-4.05c0-.37-.07-.64-.22-.8-.15-.16-.39-.25-.74-.25-.48,0-.83.2-1.05.6v4.49h-1.7v-6.36h1.59Z"/>
    <path class="cls-16" d="m107.59,342.02c-.93,0-1.69-.29-2.28-.86-.59-.57-.88-1.33-.88-2.28v-.17c0-.64.12-1.21.37-1.71.25-.5.6-.89,1.05-1.16s.97-.41,1.55-.41c.87,0,1.55.28,2.05.82.5.55.75,1.33.75,2.33v.69h-4.05c.05.42.22.75.5,1,.28.25.63.38,1.05.38.65,0,1.16-.24,1.53-.71l.83.93c-.25.36-.6.64-1.03.84s-.92.3-1.44.3Zm-.19-5.22c-.34,0-.61.11-.82.34s-.34.55-.4.98h2.36v-.14c0-.38-.11-.67-.31-.88s-.47-.31-.83-.31Z"/>
  </g>
  <rect class="cls-12" x="35.8" y="67.04" width="272.6" height="6.89" rx="3.44" ry="3.44"/>
  <rect class="cls-12" x="36.02" y="81.38" width="272.6" height="6.89" rx="3.44" ry="3.44"/>
  <rect class="cls-12" x="35.69" y="149.56" width="259.38" height="6.89" rx="3.44" ry="3.44"/>
  <rect class="cls-12" x="35.9" y="163.89" width="259.38" height="6.89" rx="3.44" ry="3.44"/>
  <rect class="cls-12" x="35.59" y="225.03" width="259.38" height="6.89" rx="3.44" ry="3.44"/>
  <rect class="cls-13" x="35.37" y="355.87" width="246.41" height="6.89" rx="3.44" ry="3.44"/>
  <rect class="cls-13" x="35.57" y="370.2" width="201.74" height="6.89" rx="3.44" ry="3.44"/>
  <rect class="cls-12" x="35.59" y="284.47" width="166.41" height="6.89" rx="3.44" ry="3.44"/>
  <rect class="cls-15" x="369.14" y="241.27" width="114.67" height="6.89" rx="3.44" ry="3.44"/>
  <rect class="cls-12" x="369.14" y="265.67" width="114.67" height="6.89" rx="3.44" ry="3.44"/>
  <rect class="cls-12" x="369.14" y="279.64" width="114.67" height="6.89" rx="3.44" ry="3.44"/>
  <rect class="cls-12" x="390.81" y="337.71" width="75.38" height="6.89" rx="3.44" ry="3.44"/>
  <rect class="cls-12" x="395.15" y="193.1" width="66.69" height="6.89" rx="3.44" ry="3.44"/>
  <rect class="cls-12" x="395.15" y="92.62" width="66.69" height="6.89" rx="3.44" ry="3.44"/>
  <rect class="cls-12" x="35.48" y="255.01" width="259.38" height="6.89" rx="3.44" ry="3.44"/>
  <rect class="cls-12" x="355.55" y="354.82" width="145.89" height="13.78" rx="6.89" ry="6.89"/>
  <rect class="cls-12" x="431.21" y="373.61" width="22.17" height="22.17" rx="4.01" ry="4.01"/>
  <rect class="cls-12" x="402.44" y="373.61" width="22.17" height="22.17" rx="4.01" ry="4.01"/>
  <rect class="cls-13" x="355.55" y="354.82" width="29.96" height="13.78" rx="6.89" ry="6.89"/>
  <rect class="cls-12" x="35.69" y="269.35" width="220.5" height="6.89" rx="3.44" ry="3.44"/>
  <rect class="cls-12" x="35.8" y="239.36" width="111.17" height="6.89" rx="3.44" ry="3.44"/>
  <circle class="cls-13" cx="303.29" cy="359.31" r="5.32"/>
  <polyline class="cls-9" points="300.83 359.38 302.4 360.96 305.75 357.66"/>
  <circle class="cls-13" cx="303.23" cy="387.92" r="5.32"/>
  <line class="cls-9" x1="301.62" y1="389.58" x2="304.97" y2="386.27"/>
  <line class="cls-9" x1="301.62" y1="386.27" x2="304.97" y2="389.58"/>
  <rect class="cls-12" x="35.31" y="384.48" width="235.61" height="6.89" rx="3.44" ry="3.44"/>
  <rect class="cls-12" x="35.51" y="398.82" width="163.56" height="6.89" rx="3.44" ry="3.44"/>
  <circle class="cls-13" cx="303.23" cy="373.65" r="5.32"/>
  <polyline class="cls-9" points="300.77 373.71 302.34 375.3 305.69 371.99"/>
  <circle class="cls-13" cx="303.23" cy="402.23" r="5.32"/>
  <line class="cls-9" x1="301.62" y1="403.88" x2="304.97" y2="400.58"/>
  <line class="cls-9" x1="301.62" y1="400.58" x2="304.97" y2="403.88"/>
  <rect class="cls-13" x="35.31" y="413.09" width="241.94" height="6.89" rx="3.44" ry="3.44"/>
  <rect class="cls-12" x="35.51" y="427.43" width="215.51" height="6.89" rx="3.44" ry="3.44"/>
  <circle class="cls-13" cx="303.23" cy="416.54" r="5.32"/>
  <polyline class="cls-9" points="300.77 416.6 302.34 418.19 305.69 414.88"/>
  <rect class="cls-13" x="35.31" y="441.71" width="196.71" height="6.89" rx="3.44" ry="3.44"/>
  <circle class="cls-13" cx="303.23" cy="445.15" r="5.32"/>
  <polyline class="cls-9" points="300.77 445.22 302.34 446.81 305.69 443.5"/>
  <circle class="cls-13" cx="303.23" cy="430.85" r="5.32"/>
  <line class="cls-9" x1="301.62" y1="432.5" x2="304.97" y2="429.19"/>
  <line class="cls-9" x1="301.62" y1="429.19" x2="304.97" y2="432.5"/>
  <g>
    <circle class="cls-11" cx="428.64" cy="161.81" r="19.16"/>
    <path class="cls-13" d="m428.68,161.76h-.04v-12.55c-6.96,0-12.6,5.64-12.6,12.6s5.64,12.6,12.6,12.6c3.47,0,6.62-1.41,8.9-3.68l-8.86-8.97Z"/>
    <line class="cls-11" x1="428.64" y1="142" x2="428.64" y2="134.92"/>
    <rect class="cls-14" x="422.2" y="131.92" width="12.89" height="5.4" rx="1.24" ry="1.24"/>
  </g>
  <g>
    <line class="cls-10" x1="437.92" y1="384.69" x2="443.43" y2="384.69"/>
    <polygon class="cls-14" points="442.6 387.52 447.5 384.69 442.6 381.87 442.6 387.52"/>
  </g>
  <g>
    <line class="cls-10" x1="417.34" y1="384.69" x2="411.83" y2="384.69"/>
    <polygon class="cls-14" points="412.65 381.87 407.76 384.69 412.65 387.52 412.65 381.87"/>
  </g>
  <g>
    <path class="cls-16" d="m45.44,44.32l1.59-8.42h2.43l-2.63,11.83h-2.45l-1.93-7.92-1.93,7.92h-2.45l-2.62-11.83h2.43l1.6,8.4,1.95-8.4h2.06l1.94,8.42Z"/>
    <path class="cls-16" d="m52.92,39.9c.62-.75,1.41-1.12,2.35-1.12,1.91,0,2.87,1.11,2.9,3.32v5.63h-2.35v-5.57c0-.51-.11-.88-.33-1.12-.22-.24-.58-.36-1.08-.36-.69,0-1.18.27-1.5.8v6.25h-2.35v-12.48h2.35v4.65Z"/>
    <path class="cls-16" d="m65.03,47.73c-.11-.21-.19-.47-.24-.79-.57.63-1.31.95-2.22.95-.86,0-1.57-.25-2.14-.75-.57-.5-.85-1.13-.85-1.89,0-.93.34-1.65,1.04-2.15.69-.5,1.69-.75,2.99-.75h1.08v-.51c0-.4-.1-.73-.31-.98-.21-.24-.54-.36-.99-.36-.4,0-.7.1-.93.29-.22.19-.34.45-.34.78h-2.35c0-.51.16-.98.47-1.42.31-.43.76-.77,1.33-1.02.57-.25,1.22-.37,1.93-.37,1.08,0,1.94.27,2.58.82.64.55.96,1.31.96,2.3v3.81c0,.83.12,1.47.35,1.89v.14h-2.37Zm-1.94-1.63c.34,0,.66-.08.96-.23.29-.15.51-.36.65-.62v-1.51h-.88c-1.18,0-1.8.41-1.88,1.22v.14c0,.29.09.53.3.72.2.19.49.29.85.29Z"/>
    <path class="cls-16" d="m71.67,36.78v2.16h1.5v1.72h-1.5v4.39c0,.33.06.56.19.7s.36.21.72.21c.26,0,.49-.02.69-.06v1.78c-.46.14-.93.21-1.42.21-1.65,0-2.49-.83-2.52-2.5v-4.74h-1.28v-1.72h1.28v-2.16h2.35Z"/>
    <path class="cls-16" d="m81.97,35.9l3.04,8.58,3.02-8.58h3.2v11.83h-2.45v-3.23l.25-5.58-3.19,8.82h-1.67l-3.19-8.81.24,5.57v3.23h-2.44v-11.83h3.19Z"/>
    <path class="cls-16" d="m98.3,47.73c-.11-.21-.19-.47-.24-.79-.57.63-1.31.95-2.22.95-.86,0-1.57-.25-2.14-.75-.57-.5-.85-1.13-.85-1.89,0-.93.34-1.65,1.04-2.15.69-.5,1.69-.75,2.99-.75h1.08v-.51c0-.4-.1-.73-.31-.98-.21-.24-.54-.36-.99-.36-.4,0-.7.1-.93.29-.22.19-.34.45-.34.78h-2.35c0-.51.16-.98.47-1.42.31-.43.76-.77,1.33-1.02.57-.25,1.22-.37,1.93-.37,1.08,0,1.94.27,2.58.82.64.55.96,1.31.96,2.3v3.81c0,.83.12,1.47.35,1.89v.14h-2.37Zm-1.94-1.63c.34,0,.66-.08.96-.23.29-.15.51-.36.65-.62v-1.51h-.88c-1.18,0-1.8.41-1.88,1.22v.14c0,.29.09.53.3.72.2.19.49.29.85.29Z"/>
    <path class="cls-16" d="m105.33,44.21l-.85.85v2.68h-2.35v-12.48h2.35v6.92l.46-.59,2.25-2.64h2.82l-3.18,3.66,3.45,5.13h-2.7l-2.26-3.53Z"/>
    <path class="cls-16" d="m115.07,47.9c-1.29,0-2.34-.4-3.15-1.19-.81-.79-1.22-1.84-1.22-3.16v-.23c0-.88.17-1.67.51-2.37.34-.7.82-1.23,1.45-1.61.62-.38,1.34-.57,2.14-.57,1.2,0,2.15.38,2.84,1.14.69.76,1.04,1.83,1.04,3.23v.96h-5.6c.08.58.31,1.04.69,1.38.38.35.87.52,1.45.52.9,0,1.61-.33,2.12-.98l1.16,1.29c-.35.5-.83.89-1.43,1.17-.6.28-1.27.42-2,.42Zm-.27-7.22c-.47,0-.84.16-1.13.47-.29.31-.47.77-.56,1.35h3.27v-.19c-.01-.52-.15-.93-.42-1.21s-.66-.43-1.15-.43Z"/>
    <path class="cls-16" d="m124.78,45.3c0-.29-.14-.51-.43-.68-.28-.17-.74-.31-1.37-.44-2.09-.44-3.14-1.33-3.14-2.67,0-.78.32-1.43.97-1.96.65-.52,1.49-.78,2.54-.78,1.12,0,2.01.26,2.68.79.67.53,1,1.21,1,2.05h-2.35c0-.34-.11-.61-.33-.83-.22-.22-.56-.33-1.02-.33-.4,0-.7.09-.92.27-.22.18-.33.41-.33.68,0,.26.12.47.37.63.25.16.66.3,1.25.42.59.12,1.08.25,1.48.39,1.24.46,1.86,1.24,1.86,2.36,0,.8-.34,1.45-1.03,1.95-.69.5-1.58.74-2.67.74-.74,0-1.39-.13-1.96-.39-.57-.26-1.02-.62-1.35-1.08-.33-.46-.49-.95-.49-1.48h2.23c.02.42.18.74.46.96.29.22.67.33,1.15.33.45,0,.79-.09,1.02-.26.23-.17.34-.39.34-.67Z"/>
    <path class="cls-16" d="m142.16,43.79c-.09,1.27-.56,2.28-1.41,3-.85.73-1.97,1.1-3.35,1.1-1.52,0-2.71-.51-3.58-1.53-.87-1.02-1.3-2.42-1.3-4.21v-.72c0-1.14.2-2.14.6-3s.97-1.53,1.72-2c.74-.46,1.61-.7,2.6-.7,1.37,0,2.46.36,3.3,1.1.83.73,1.32,1.76,1.45,3.08h-2.44c-.06-.76-.27-1.32-.64-1.66-.36-.34-.92-.52-1.67-.52-.81,0-1.42.29-1.83.87-.4.58-.61,1.49-.62,2.71v.89c0,1.28.19,2.21.58,2.8.39.59,1,.89,1.83.89.75,0,1.31-.17,1.68-.52.37-.34.58-.88.64-1.6h2.44Z"/>
    <path class="cls-16" d="m143.24,43.26c0-.87.17-1.65.5-2.33s.82-1.21,1.45-1.58c.63-.38,1.36-.56,2.2-.56,1.19,0,2.16.36,2.91,1.09.75.73,1.17,1.71,1.26,2.96l.02.6c0,1.35-.38,2.43-1.13,3.25-.75.81-1.76,1.22-3.03,1.22s-2.28-.41-3.04-1.22c-.76-.81-1.13-1.92-1.13-3.32v-.11Zm2.35.17c0,.84.16,1.47.47,1.92s.77.66,1.35.66,1.01-.22,1.33-.66c.32-.44.48-1.14.48-2.1,0-.82-.16-1.45-.48-1.9-.32-.45-.77-.68-1.35-.68s-1.02.22-1.33.67-.47,1.14-.47,2.08Z"/>
    <path class="cls-16" d="m155.18,38.94l.07,1.02c.63-.79,1.47-1.18,2.53-1.18.93,0,1.63.27,2.08.82s.69,1.37.7,2.45v5.68h-2.35v-5.62c0-.5-.11-.86-.33-1.09-.22-.22-.58-.34-1.08-.34-.66,0-1.16.28-1.49.85v6.2h-2.35v-8.79h2.21Z"/>
    <path class="cls-16" d="m167.1,45.3c0-.29-.14-.51-.43-.68-.28-.17-.74-.31-1.37-.44-2.09-.44-3.14-1.33-3.14-2.67,0-.78.32-1.43.97-1.96.65-.52,1.49-.78,2.54-.78,1.12,0,2.01.26,2.68.79.67.53,1,1.21,1,2.05h-2.35c0-.34-.11-.61-.33-.83-.22-.22-.56-.33-1.02-.33-.4,0-.7.09-.92.27-.22.18-.33.41-.33.68,0,.26.12.47.37.63.25.16.66.3,1.25.42.59.12,1.08.25,1.48.39,1.24.46,1.86,1.24,1.86,2.36,0,.8-.34,1.45-1.03,1.95-.69.5-1.58.74-2.67.74-.74,0-1.39-.13-1.96-.39-.57-.26-1.02-.62-1.35-1.08-.33-.46-.49-.95-.49-1.48h2.23c.02.42.18.74.46.96.29.22.67.33,1.15.33.45,0,.79-.09,1.02-.26.23-.17.34-.39.34-.67Z"/>
    <path class="cls-16" d="m174.94,47.9c-1.29,0-2.34-.4-3.15-1.19-.81-.79-1.22-1.84-1.22-3.16v-.23c0-.88.17-1.67.51-2.37.34-.7.82-1.23,1.45-1.61.62-.38,1.34-.57,2.14-.57,1.2,0,2.15.38,2.84,1.14.69.76,1.04,1.83,1.04,3.23v.96h-5.6c.08.58.31,1.04.69,1.38.38.35.87.52,1.45.52.9,0,1.61-.33,2.12-.98l1.16,1.29c-.35.5-.83.89-1.43,1.17-.6.28-1.27.42-2,.42Zm-.27-7.22c-.47,0-.84.16-1.13.47-.29.31-.47.77-.56,1.35h3.27v-.19c-.01-.52-.15-.93-.42-1.21s-.66-.43-1.15-.43Z"/>
    <path class="cls-16" d="m182.06,38.94l.07,1.02c.63-.79,1.47-1.18,2.53-1.18.93,0,1.63.27,2.08.82s.69,1.37.7,2.45v5.68h-2.35v-5.62c0-.5-.11-.86-.33-1.09-.22-.22-.58-.34-1.08-.34-.66,0-1.16.28-1.49.85v6.2h-2.35v-8.79h2.21Z"/>
    <path class="cls-16" d="m192.03,36.78v2.16h1.5v1.72h-1.5v4.39c0,.33.06.56.19.7s.36.21.72.21c.26,0,.49-.02.69-.06v1.78c-.46.14-.93.21-1.42.21-1.65,0-2.49-.83-2.52-2.5v-4.74h-1.28v-1.72h1.28v-2.16h2.35Z"/>
    <path class="cls-16" d="m203.51,44.8l2.68-8.9h2.71l-4.12,11.83h-2.54l-4.1-11.83h2.71l2.67,8.9Z"/>
    <path class="cls-16" d="m214.59,47.73c-.11-.21-.19-.47-.24-.79-.57.63-1.31.95-2.22.95-.86,0-1.57-.25-2.14-.75-.57-.5-.85-1.13-.85-1.89,0-.93.34-1.65,1.04-2.15.69-.5,1.69-.75,2.99-.75h1.08v-.51c0-.4-.1-.73-.31-.98-.21-.24-.54-.36-.99-.36-.4,0-.7.1-.93.29-.22.19-.34.45-.34.78h-2.35c0-.51.16-.98.47-1.42.31-.43.76-.77,1.33-1.02.57-.25,1.22-.37,1.93-.37,1.08,0,1.94.27,2.58.82.64.55.96,1.31.96,2.3v3.81c0,.83.12,1.47.35,1.89v.14h-2.37Zm-1.94-1.63c.34,0,.66-.08.96-.23.29-.15.51-.36.65-.62v-1.51h-.88c-1.18,0-1.8.41-1.88,1.22v.14c0,.29.09.53.3.72.2.19.49.29.85.29Z"/>
    <path class="cls-16" d="m220.89,47.73h-2.36v-12.48h2.36v12.48Z"/>
    <path class="cls-16" d="m222.81,36.67c0-.35.12-.64.35-.87.24-.23.56-.34.96-.34s.72.12.96.34.36.52.36.87-.12.65-.36.88c-.24.23-.56.34-.95.34s-.72-.11-.96-.34c-.24-.23-.36-.52-.36-.88Zm2.5,11.07h-2.36v-8.79h2.36v8.79Z"/>
    <path class="cls-16" d="m226.87,43.27c0-1.37.31-2.46.92-3.28.61-.81,1.46-1.22,2.52-1.22.86,0,1.56.32,2.12.96v-4.49h2.35v12.48h-2.12l-.11-.94c-.59.73-1.34,1.1-2.26,1.1-1.03,0-1.87-.41-2.49-1.22-.63-.82-.94-1.95-.94-3.4Zm2.35.17c0,.83.14,1.46.43,1.9.29.44.7.66,1.25.66.73,0,1.24-.31,1.54-.92v-3.47c-.29-.61-.8-.92-1.52-.92-1.13,0-1.7.92-1.7,2.76Z"/>
    <path class="cls-16" d="m238.54,44.11c0-.76.09-1.36.27-1.81.18-.45.52-.89,1.01-1.33.49-.44.82-.79.98-1.07s.24-.56.24-.87c0-.92-.42-1.38-1.27-1.38-.4,0-.72.12-.96.37-.24.25-.37.59-.38,1.02h-2.36c.01-1.03.35-1.85,1-2.43.66-.59,1.56-.88,2.69-.88s2.04.28,2.67.83c.64.56.95,1.34.95,2.35,0,.46-.1.9-.31,1.31-.21.41-.57.86-1.08,1.36l-.66.63c-.41.4-.65.86-.71,1.39l-.03.5h-2.08Zm-.24,2.49c0-.36.12-.66.37-.89.25-.23.56-.35.95-.35s.7.12.95.35c.25.23.37.53.37.89s-.12.65-.36.88c-.24.23-.56.35-.95.35s-.71-.12-.96-.35c-.24-.23-.36-.53-.36-.88Z"/>
  </g>
</svg>
