<svg xmlns="http://www.w3.org/2000/svg" xmlns:xlink="http://www.w3.org/1999/xlink" width="1080" zoomAndPan="magnify" viewBox="0 0 810 809.999993" height="1080" preserveAspectRatio="xMidYMid meet" version="1.2"><defs><clipPath id="cb872f2408"><rect x="0" width="807" y="0" height="198"/></clipPath></defs><g id="e3f3ff418f"><g transform="matrix(1,0,0,1,0,534)"><g clip-path="url(#cb872f2408)"><g style="fill:#f4f6fc;fill-opacity:1;"><g transform="translate(0.0000035, 146.823565)"><path style="stroke:none" d="M 119.34375 -97.75 L 119.34375 0 L 95.53125 0 L 95.53125 -58.625 L 73.65625 0 L 54.453125 0 L 32.4375 -58.765625 L 32.4375 0 L 8.640625 0 L 8.640625 -97.75 L 36.765625 -97.75 L 64.1875 -30.078125 L 91.34375 -97.75 Z M 119.34375 -97.75 "/></g></g><g style="fill:#f4f6fc;fill-opacity:1;"><g transform="translate(125.002667, 146.823565)"><path style="stroke:none" d="M 81.875 -40.109375 C 81.875 -37.878906 81.738281 -35.554688 81.46875 -33.140625 L 27.578125 -33.140625 C 27.941406 -28.316406 29.492188 -24.625 32.234375 -22.0625 C 34.972656 -19.507812 38.335938 -18.234375 42.328125 -18.234375 C 48.273438 -18.234375 52.40625 -20.742188 54.71875 -25.765625 L 80.0625 -25.765625 C 78.769531 -20.660156 76.425781 -16.0625 73.03125 -11.96875 C 69.644531 -7.882812 65.398438 -4.679688 60.296875 -2.359375 C 55.191406 -0.046875 49.484375 1.109375 43.171875 1.109375 C 35.554688 1.109375 28.773438 -0.515625 22.828125 -3.765625 C 16.890625 -7.015625 12.25 -11.65625 8.90625 -17.6875 C 5.570312 -23.71875 3.90625 -30.769531 3.90625 -38.84375 C 3.90625 -46.925781 5.550781 -53.984375 8.84375 -60.015625 C 12.132812 -66.046875 16.75 -70.6875 22.6875 -73.9375 C 28.632812 -77.1875 35.460938 -78.8125 43.171875 -78.8125 C 50.691406 -78.8125 57.375 -77.234375 63.21875 -74.078125 C 69.070312 -70.921875 73.644531 -66.414062 76.9375 -60.5625 C 80.226562 -54.71875 81.875 -47.898438 81.875 -40.109375 Z M 57.515625 -46.375 C 57.515625 -50.457031 56.117188 -53.703125 53.328125 -56.109375 C 50.546875 -58.523438 47.066406 -59.734375 42.890625 -59.734375 C 38.898438 -59.734375 35.535156 -58.570312 32.796875 -56.25 C 30.054688 -53.9375 28.359375 -50.644531 27.703125 -46.375 Z M 57.515625 -46.375 "/></g></g><g style="fill:#f4f6fc;fill-opacity:1;"><g transform="translate(207.966134, 146.823565)"><path style="stroke:none" d="M 3.90625 -38.984375 C 3.90625 -46.972656 5.410156 -53.984375 8.421875 -60.015625 C 11.441406 -66.046875 15.550781 -70.6875 20.75 -73.9375 C 25.945312 -77.1875 31.75 -78.8125 38.15625 -78.8125 C 43.257812 -78.8125 47.921875 -77.742188 52.140625 -75.609375 C 56.367188 -73.472656 59.691406 -70.597656 62.109375 -66.984375 L 62.109375 -103.046875 L 85.921875 -103.046875 L 85.921875 0 L 62.109375 0 L 62.109375 -11.140625 C 59.878906 -7.421875 56.695312 -4.445312 52.5625 -2.21875 C 48.4375 0 43.632812 1.109375 38.15625 1.109375 C 31.75 1.109375 25.945312 -0.535156 20.75 -3.828125 C 15.550781 -7.117188 11.441406 -11.804688 8.421875 -17.890625 C 5.410156 -23.972656 3.90625 -31.003906 3.90625 -38.984375 Z M 62.109375 -38.84375 C 62.109375 -44.789062 60.457031 -49.476562 57.15625 -52.90625 C 53.863281 -56.34375 49.847656 -58.0625 45.109375 -58.0625 C 40.378906 -58.0625 36.363281 -56.367188 33.0625 -52.984375 C 29.769531 -49.597656 28.125 -44.929688 28.125 -38.984375 C 28.125 -33.046875 29.769531 -28.335938 33.0625 -24.859375 C 36.363281 -21.378906 40.378906 -19.640625 45.109375 -19.640625 C 49.847656 -19.640625 53.863281 -21.351562 57.15625 -24.78125 C 60.457031 -28.21875 62.109375 -32.90625 62.109375 -38.84375 Z M 62.109375 -38.84375 "/></g></g><g style="fill:#f4f6fc;fill-opacity:1;"><g transform="translate(299.699375, 146.823565)"><path style="stroke:none" d="M 4.59375 -49.015625 C 4.59375 -58.671875 6.679688 -67.28125 10.859375 -74.84375 C 15.035156 -82.414062 20.859375 -88.3125 28.328125 -92.53125 C 35.804688 -96.757812 44.28125 -98.875 53.75 -98.875 C 65.351562 -98.875 75.285156 -95.804688 83.546875 -89.671875 C 91.804688 -83.546875 97.332031 -75.191406 100.125 -64.609375 L 73.9375 -64.609375 C 71.988281 -68.691406 69.226562 -71.800781 65.65625 -73.9375 C 62.082031 -76.070312 58.019531 -77.140625 53.46875 -77.140625 C 46.132812 -77.140625 40.191406 -74.585938 35.640625 -69.484375 C 31.097656 -64.378906 28.828125 -57.554688 28.828125 -49.015625 C 28.828125 -40.472656 31.097656 -33.648438 35.640625 -28.546875 C 40.191406 -23.441406 46.132812 -20.890625 53.46875 -20.890625 C 58.019531 -20.890625 62.082031 -21.957031 65.65625 -24.09375 C 69.226562 -26.226562 71.988281 -29.335938 73.9375 -33.421875 L 100.125 -33.421875 C 97.332031 -22.835938 91.804688 -14.503906 83.546875 -8.421875 C 75.285156 -2.335938 65.351562 0.703125 53.75 0.703125 C 44.28125 0.703125 35.804688 -1.40625 28.328125 -5.625 C 20.859375 -9.851562 15.035156 -15.726562 10.859375 -23.25 C 6.679688 -30.769531 4.59375 -39.359375 4.59375 -49.015625 Z M 4.59375 -49.015625 "/></g></g><g style="fill:#f4f6fc;fill-opacity:1;"><g transform="translate(402.98644, 146.823565)"><path style="stroke:none" d="M 3.90625 -38.984375 C 3.90625 -46.972656 5.410156 -53.984375 8.421875 -60.015625 C 11.441406 -66.046875 15.550781 -70.6875 20.75 -73.9375 C 25.945312 -77.1875 31.75 -78.8125 38.15625 -78.8125 C 43.632812 -78.8125 48.4375 -77.695312 52.5625 -75.46875 C 56.695312 -73.238281 59.878906 -70.316406 62.109375 -66.703125 L 62.109375 -77.703125 L 85.921875 -77.703125 L 85.921875 0 L 62.109375 0 L 62.109375 -11 C 59.785156 -7.375 56.554688 -4.445312 52.421875 -2.21875 C 48.296875 0 43.492188 1.109375 38.015625 1.109375 C 31.703125 1.109375 25.945312 -0.535156 20.75 -3.828125 C 15.550781 -7.117188 11.441406 -11.804688 8.421875 -17.890625 C 5.410156 -23.972656 3.90625 -31.003906 3.90625 -38.984375 Z M 62.109375 -38.84375 C 62.109375 -44.789062 60.457031 -49.476562 57.15625 -52.90625 C 53.863281 -56.34375 49.847656 -58.0625 45.109375 -58.0625 C 40.378906 -58.0625 36.363281 -56.367188 33.0625 -52.984375 C 29.769531 -49.597656 28.125 -44.929688 28.125 -38.984375 C 28.125 -33.046875 29.769531 -28.335938 33.0625 -24.859375 C 36.363281 -21.378906 40.378906 -19.640625 45.109375 -19.640625 C 49.847656 -19.640625 53.863281 -21.351562 57.15625 -24.78125 C 60.457031 -28.21875 62.109375 -32.90625 62.109375 -38.84375 Z M 62.109375 -38.84375 "/></g></g><g style="fill:#f4f6fc;fill-opacity:1;"><g transform="translate(494.719681, 146.823565)"><path style="stroke:none" d="M 107.78125 -78.53125 C 117.4375 -78.53125 125.117188 -75.601562 130.828125 -69.75 C 136.535156 -63.90625 139.390625 -55.785156 139.390625 -45.390625 L 139.390625 0 L 115.71875 0 L 115.71875 -42.1875 C 115.71875 -47.207031 114.394531 -51.082031 111.75 -53.8125 C 109.101562 -56.550781 105.457031 -57.921875 100.8125 -57.921875 C 96.175781 -57.921875 92.535156 -56.550781 89.890625 -53.8125 C 87.242188 -51.082031 85.921875 -47.207031 85.921875 -42.1875 L 85.921875 0 L 62.25 0 L 62.25 -42.1875 C 62.25 -47.207031 60.925781 -51.082031 58.28125 -53.8125 C 55.632812 -56.550781 51.988281 -57.921875 47.34375 -57.921875 C 42.695312 -57.921875 39.050781 -56.550781 36.40625 -53.8125 C 33.757812 -51.082031 32.4375 -47.207031 32.4375 -42.1875 L 32.4375 0 L 8.640625 0 L 8.640625 -77.703125 L 32.4375 -77.703125 L 32.4375 -67.953125 C 34.851562 -71.203125 38.007812 -73.773438 41.90625 -75.671875 C 45.8125 -77.578125 50.222656 -78.53125 55.140625 -78.53125 C 60.992188 -78.53125 66.21875 -77.273438 70.8125 -74.765625 C 75.40625 -72.265625 79 -68.695312 81.59375 -64.0625 C 84.289062 -68.320312 87.957031 -71.796875 92.59375 -74.484375 C 97.238281 -77.179688 102.300781 -78.53125 107.78125 -78.53125 Z M 107.78125 -78.53125 "/></g></g><g style="fill:#f4f6fc;fill-opacity:1;"><g transform="translate(639.349921, 146.823565)"><path style="stroke:none" d="M 32.4375 -66.703125 C 34.757812 -70.316406 37.960938 -73.238281 42.046875 -75.46875 C 46.140625 -77.695312 50.921875 -78.8125 56.390625 -78.8125 C 62.796875 -78.8125 68.597656 -77.1875 73.796875 -73.9375 C 78.992188 -70.6875 83.101562 -66.046875 86.125 -60.015625 C 89.144531 -53.984375 90.65625 -46.972656 90.65625 -38.984375 C 90.65625 -31.003906 89.144531 -23.972656 86.125 -17.890625 C 83.101562 -11.804688 78.992188 -7.117188 73.796875 -3.828125 C 68.597656 -0.535156 62.796875 1.109375 56.390625 1.109375 C 51.003906 1.109375 46.242188 0 42.109375 -2.21875 C 37.984375 -4.445312 34.757812 -7.328125 32.4375 -10.859375 L 32.4375 37.046875 L 8.640625 37.046875 L 8.640625 -77.703125 L 32.4375 -77.703125 Z M 66.421875 -38.984375 C 66.421875 -44.929688 64.769531 -49.597656 61.46875 -52.984375 C 58.175781 -56.367188 54.117188 -58.0625 49.296875 -58.0625 C 44.554688 -58.0625 40.539062 -56.34375 37.25 -52.90625 C 33.957031 -49.476562 32.3125 -44.789062 32.3125 -38.84375 C 32.3125 -32.90625 33.957031 -28.21875 37.25 -24.78125 C 40.539062 -21.351562 44.554688 -19.640625 49.296875 -19.640625 C 54.023438 -19.640625 58.0625 -21.378906 61.40625 -24.859375 C 64.75 -28.335938 66.421875 -33.046875 66.421875 -38.984375 Z M 66.421875 -38.984375 "/></g></g><g style="fill:#f4f6fc;fill-opacity:1;"><g transform="translate(731.083162, 146.823565)"><path style="stroke:none" d="M 40.25 1.109375 C 33.46875 1.109375 27.429688 -0.046875 22.140625 -2.359375 C 16.847656 -4.679688 12.671875 -7.863281 9.609375 -11.90625 C 6.546875 -15.945312 4.828125 -20.472656 4.453125 -25.484375 L 27.984375 -25.484375 C 28.265625 -22.785156 29.519531 -20.601562 31.75 -18.9375 C 33.976562 -17.269531 36.71875 -16.4375 39.96875 -16.4375 C 42.9375 -16.4375 45.234375 -17.015625 46.859375 -18.171875 C 48.484375 -19.328125 49.296875 -20.835938 49.296875 -22.703125 C 49.296875 -24.929688 48.132812 -26.578125 45.8125 -27.640625 C 43.488281 -28.710938 39.726562 -29.894531 34.53125 -31.1875 C 28.957031 -32.488281 24.3125 -33.859375 20.59375 -35.296875 C 16.882812 -36.734375 13.6875 -39.003906 11 -42.109375 C 8.3125 -45.222656 6.96875 -49.425781 6.96875 -54.71875 C 6.96875 -59.175781 8.195312 -63.238281 10.65625 -66.90625 C 13.113281 -70.570312 16.734375 -73.472656 21.515625 -75.609375 C 26.296875 -77.742188 31.984375 -78.8125 38.578125 -78.8125 C 48.316406 -78.8125 55.992188 -76.394531 61.609375 -71.5625 C 67.234375 -66.738281 70.460938 -60.335938 71.296875 -52.359375 L 49.296875 -52.359375 C 48.921875 -55.046875 47.734375 -57.175781 45.734375 -58.75 C 43.742188 -60.332031 41.125 -61.125 37.875 -61.125 C 35.09375 -61.125 32.957031 -60.585938 31.46875 -59.515625 C 29.988281 -58.453125 29.25 -56.992188 29.25 -55.140625 C 29.25 -52.910156 30.429688 -51.238281 32.796875 -50.125 C 35.160156 -49.007812 38.847656 -47.894531 43.859375 -46.78125 C 49.617188 -45.300781 54.304688 -43.84375 57.921875 -42.40625 C 61.546875 -40.96875 64.726562 -38.644531 67.46875 -35.4375 C 70.207031 -32.238281 71.625 -27.945312 71.71875 -22.5625 C 71.71875 -18.007812 70.441406 -13.945312 67.890625 -10.375 C 65.335938 -6.800781 61.671875 -3.992188 56.890625 -1.953125 C 52.109375 0.0859375 46.5625 1.109375 40.25 1.109375 Z M 40.25 1.109375 "/></g></g></g></g><path style=" stroke:none;fill-rule:nonzero;fill:#f4f6fc;fill-opacity:1;" d="M 400.972656 426.148438 L 217.070312 363.464844 L 217.070312 432.207031 C 217.070312 444.757812 223.050781 456.523438 233.125 463.996094 C 275.238281 495.230469 331.859375 523.035156 400.335938 523.515625 C 400.945312 523.515625 401.53125 523.515625 402.140625 523.515625 C 470.117188 523.515625 526.496094 496.484375 568.558594 465.855469 C 578.789062 458.40625 584.867188 446.539062 584.867188 433.882812 L 584.867188 363.464844 L 400.964844 426.148438 Z M 400.972656 426.148438 "/><path style=" stroke:none;fill-rule:nonzero;fill:#f4f6fc;fill-opacity:1;" d="M 264.792969 290.425781 L 264.792969 290.496094 L 332.949219 290.496094 L 360.464844 218.660156 L 390.65625 297.28125 L 390.664062 297.269531 L 400.984375 324.140625 L 411.28125 297.261719 L 411.300781 297.261719 L 441.492188 218.660156 L 469 290.496094 L 537.15625 290.496094 L 537.15625 290.425781 L 668.332031 290.425781 L 400.972656 172.042969 L 133.625 290.425781 Z M 264.792969 290.425781 "/><path style=" stroke:none;fill-rule:nonzero;fill:#f4f6fc;fill-opacity:1;" d="M 537.15625 311.691406 L 537.15625 311.757812 L 454.375 311.757812 L 441.464844 278.042969 L 431.136719 304.914062 L 431.125 304.90625 L 401.011719 383.523438 L 370.824219 304.914062 L 370.8125 304.914062 L 360.496094 278.042969 L 347.574219 311.757812 L 264.792969 311.757812 L 264.792969 311.691406 L 133.339844 311.691406 L 400.972656 402.917969 L 668.609375 311.691406 Z M 537.15625 311.691406 "/></g></svg>