<svg xmlns="http://www.w3.org/2000/svg" xmlns:xlink="http://www.w3.org/1999/xlink" width="500" zoomAndPan="magnify" viewBox="0 0 375 374.999991" height="500" preserveAspectRatio="xMidYMid meet" version="1.2"><g id="bb1b4a396c"><path style=" stroke:none;fill-rule:nonzero;fill:#f4f6fc;fill-opacity:1;" d="M 184.988281 232.734375 L 70.144531 193.59375 L 70.144531 236.519531 C 70.144531 244.355469 73.878906 251.703125 80.167969 256.371094 C 106.46875 275.875 141.828125 293.238281 184.589844 293.539062 C 184.96875 293.539062 185.335938 293.539062 185.714844 293.539062 C 228.164062 293.539062 263.371094 276.660156 289.640625 257.53125 C 296.027344 252.878906 299.824219 245.46875 299.824219 237.566406 L 299.824219 193.59375 L 184.980469 232.734375 Z M 184.988281 232.734375 "/><path style=" stroke:none;fill-rule:nonzero;fill:#f4f6fc;fill-opacity:1;" d="M 99.945312 147.980469 L 99.945312 148.023438 L 142.507812 148.023438 L 159.691406 103.164062 L 178.542969 152.261719 L 178.550781 152.253906 L 184.992188 169.035156 L 191.425781 152.246094 L 191.4375 152.246094 L 210.289062 103.164062 L 227.46875 148.023438 L 270.027344 148.023438 L 270.027344 147.980469 L 351.945312 147.980469 L 184.988281 74.054688 L 18.035156 147.980469 Z M 99.945312 147.980469 "/><path style=" stroke:none;fill-rule:nonzero;fill:#f4f6fc;fill-opacity:1;" d="M 270.027344 161.257812 L 270.027344 161.300781 L 218.335938 161.300781 L 210.273438 140.246094 L 203.824219 157.027344 L 203.816406 157.023438 L 185.011719 206.117188 L 166.160156 157.027344 L 166.152344 157.027344 L 159.710938 140.246094 L 151.640625 161.300781 L 99.945312 161.300781 L 99.945312 161.257812 L 17.855469 161.257812 L 184.988281 218.226562 L 352.117188 161.257812 Z M 270.027344 161.257812 "/></g></svg>
