<?xml version="1.0" encoding="UTF-8"?>
<svg id="Layer_1" data-name="Layer 1" xmlns="http://www.w3.org/2000/svg" viewBox="0 0 1380.3 346.21">
  <defs>
    <style>
      .cls-1 {
        fill: #0a7f68;
      }

      .cls-2 {
        fill: #171717;
      }
    </style>
  </defs>
  <path class="cls-1" d="m173.1-.86C77.5-.86,0,76.64,0,172.24s77.5,173.1,173.1,173.1,173.1-77.5,173.1-173.1S268.71-.86,173.1-.86Zm0,78.31l149.09,66.02h-73.15v.04h-38.01l-15.34-40.06-16.84,43.83h0s-5.74,14.99-5.74,14.99l-5.76-14.98h0s-16.84-43.84-16.84-43.84l-15.34,40.06h-38.01v-.04H24.01l149.09-66.02Zm102.55,109.86v36.31c0,6.97-3.35,13.49-8.98,17.6-23.47,17.12-54.95,32.24-92.92,32.24-.34,0-.67,0-1,0-38.25-.27-69.87-15.82-93.36-33.27-5.54-4.12-8.84-10.59-8.84-17.5v-38.48l102.55,34.96,102.55-34.96v3.11Zm-102.55,18.89L23.86,155.33h73.31v.04h46.16l7.2-18.8,5.76,14.99h0s16.84,43.84,16.84,43.84l16.79-43.84h0s5.76-14.98,5.76-14.98l7.2,18.8h46.16v-.04h73.31l-149.25,50.87Z"/>
  <g>
    <path class="cls-2" d="m443.27,103.1h29.34l38.87,77.36,39.06-77.36h29.34v133.37h-29.34v-77.17l-39.06,77.17-38.87-77.17v77.17h-29.34V103.1Z"/>
    <path class="cls-2" d="m685.63,196.84h-59.26c1.27,5.72,3.55,10.1,6.86,13.15,3.3,3.05,7.11,4.57,11.43,4.57,6.22,0,11.11-2.73,14.67-8.19l21.72,15.05c-4.45,5.33-9.81,9.34-16.1,12s-13.12,4-20.48,4c-6.48,0-12.54-1.08-18.2-3.24-5.65-2.16-10.64-5.27-14.96-9.34-4.32-4.06-7.72-9.15-10.19-15.24-2.48-6.1-3.71-13.02-3.71-20.77s1.17-14.83,3.52-20.86c2.35-6.03,5.53-11.08,9.53-15.15,4-4.06,8.67-7.17,14-9.34,5.33-2.16,10.99-3.24,16.96-3.24s11.43.99,16.77,2.95c5.33,1.97,10.03,5.02,14.1,9.15,4.06,4.13,7.3,9.37,9.72,15.72,2.41,6.35,3.62,13.91,3.62,22.67v6.1Zm-28.77-18.48c-.89-4.83-2.64-8.57-5.24-11.24-2.61-2.67-5.69-4-9.24-4s-6.89,1.33-9.62,4c-2.73,2.67-4.73,6.42-6,11.24h30.1Z"/>
    <path class="cls-2" d="m759.55,115.49l28.2-16.2v137.18h-28.2v-6.86c-6.61,5.21-14.17,7.81-22.67,7.81-5.46,0-10.61-1.08-15.43-3.24-4.83-2.16-9.05-5.3-12.67-9.43-3.62-4.13-6.48-9.18-8.57-15.15-2.1-5.97-3.14-12.83-3.14-20.58s1.05-14.83,3.14-20.86c2.1-6.03,4.95-11.11,8.57-15.24,3.62-4.13,7.84-7.27,12.67-9.43,4.83-2.16,9.97-3.24,15.43-3.24,8.51,0,16.07,2.6,22.67,7.81v-32.58Zm0,55.25c-3.69-5.08-8.57-7.62-14.67-7.62-5.46,0-10.1,2.22-13.91,6.67-3.81,4.45-5.72,10.67-5.72,18.67s1.91,14.83,5.72,19.34c3.81,4.51,8.45,6.76,13.91,6.76,6.1,0,10.99-2.6,14.67-7.81v-36.01Z"/>
    <path class="cls-2" d="m870.63,211.7c6.1,0,11.75-1.59,16.96-4.76,5.21-3.17,9.34-7.81,12.38-13.91l24.2,16c-5.72,9.27-13.27,16.32-22.67,21.15-9.4,4.83-19.75,7.24-31.06,7.24-8.89,0-17.21-1.49-24.96-4.48-7.75-2.98-14.55-7.37-20.39-13.15-5.84-5.78-10.45-12.86-13.81-21.24-3.37-8.38-5.05-17.97-5.05-28.77s1.68-20.39,5.05-28.77c3.36-8.38,7.97-15.46,13.81-21.24,5.84-5.78,12.64-10.16,20.39-13.15,7.75-2.98,16.07-4.48,24.96-4.48,11.3,0,21.66,2.41,31.06,7.24,9.4,4.83,16.96,11.88,22.67,21.15l-24.2,16c-3.05-6.1-7.18-10.73-12.38-13.91-5.21-3.17-10.86-4.76-16.96-4.76-4.83,0-9.34.92-13.53,2.76-4.19,1.84-7.88,4.54-11.05,8.1-3.18,3.56-5.65,7.91-7.43,13.05-1.78,5.14-2.67,11.08-2.67,17.81s.89,12.74,2.67,18.01c1.78,5.27,4.25,9.69,7.43,13.24,3.17,3.56,6.86,6.26,11.05,8.1,4.19,1.84,8.7,2.76,13.53,2.76Z"/>
    <path class="cls-2" d="m981.52,140.26c5.59,0,10.83.76,15.72,2.29,4.89,1.52,9.15,3.75,12.77,6.67,3.62,2.92,6.45,6.51,8.48,10.76,2.03,4.26,3.05,9.12,3.05,14.58v61.92h-28.2v-9.15c-2.92,3.3-6.57,5.81-10.96,7.53-4.38,1.71-8.99,2.57-13.81,2.57-4.45,0-8.67-.67-12.67-2-4-1.33-7.5-3.27-10.48-5.81-2.99-2.54-5.33-5.68-7.05-9.43-1.71-3.75-2.57-7.97-2.57-12.67s.98-9.15,2.95-12.96c1.97-3.81,4.7-6.98,8.19-9.53,3.49-2.54,7.62-4.48,12.38-5.81,4.76-1.33,9.94-2,15.53-2,2.79,0,5.75.16,8.86.48,3.11.32,6.32.79,9.62,1.43v-2.86c0-3.81-1.11-6.95-3.33-9.43-2.22-2.48-5.43-3.72-9.62-3.72-3.05,0-6.07.7-9.05,2.1-2.99,1.4-5.37,3.43-7.15,6.1l-21.72-15.05c4.45-5.33,10.19-9.34,17.24-12s14.32-4,21.82-4Zm11.81,67.83v-11.24c-2.92-.51-5.56-.89-7.91-1.14-2.35-.25-4.42-.38-6.19-.38-4.7,0-8.35.89-10.96,2.67-2.61,1.78-3.91,4-3.91,6.67s1.33,5.14,4,7.05c2.67,1.91,6.22,2.86,10.67,2.86,3.17,0,6.16-.54,8.96-1.62,2.79-1.08,4.57-2.7,5.33-4.86Z"/>
    <path class="cls-2" d="m1125.94,236.47h-28.2v-56.59c0-5.33-1.11-9.46-3.33-12.38-2.22-2.92-5.24-4.38-9.05-4.38-4.83,0-8.8,2.22-11.91,6.67-3.11,4.45-4.67,10.67-4.67,18.67v48.01h-28.2v-95.27h28.2v10.67c6.35-7.75,14.73-11.62,25.15-11.62,6.22,0,11.78,1.49,16.67,4.48,4.89,2.99,8.67,7.34,11.34,13.05,3.17-5.72,7.27-10.07,12.29-13.05,5.02-2.98,10.64-4.48,16.86-4.48,4.57,0,8.83.83,12.77,2.48,3.94,1.65,7.34,4.1,10.19,7.34,2.86,3.24,5.08,7.18,6.67,11.81,1.59,4.64,2.38,10,2.38,16.1v58.49h-28.2v-56.59c0-5.33-1.11-9.46-3.33-12.38-2.22-2.92-5.24-4.38-9.05-4.38-4.83,0-8.8,2.22-11.91,6.67-3.11,4.45-4.67,10.67-4.67,18.67v48.01Z"/>
    <path class="cls-2" d="m1230.35,262.2l-28.2,16.2v-137.18h28.2v6.86c6.6-5.21,14.16-7.81,22.67-7.81,5.46,0,10.6,1.08,15.43,3.24,4.83,2.16,9.05,5.31,12.67,9.43,3.62,4.13,6.48,9.21,8.57,15.24,2.1,6.03,3.14,12.99,3.14,20.86s-1.05,14.61-3.14,20.58c-2.1,5.97-4.95,11.02-8.57,15.15-3.62,4.13-7.84,7.27-12.67,9.43-4.83,2.16-9.97,3.24-15.43,3.24-8.51,0-16.07-2.6-22.67-7.81v32.58Zm0-55.44c3.68,5.21,8.57,7.81,14.67,7.81,5.46,0,10.1-2.25,13.91-6.76,3.81-4.51,5.72-10.96,5.72-19.34s-1.91-14.22-5.72-18.67c-3.81-4.44-8.45-6.67-13.91-6.67-6.1,0-10.99,2.54-14.67,7.62v36.01Z"/>
    <path class="cls-2" d="m1335.71,169.41c0,2.03,1.11,3.65,3.33,4.86,2.22,1.21,4.98,2.35,8.29,3.43,3.3,1.08,6.86,2.22,10.67,3.43,3.81,1.21,7.37,2.86,10.67,4.95,3.3,2.1,6.06,4.8,8.29,8.1,2.22,3.3,3.33,7.56,3.33,12.77,0,4.83-.99,9.12-2.95,12.86-1.97,3.75-4.67,6.92-8.1,9.53-3.43,2.6-7.43,4.61-12,6-4.57,1.4-9.46,2.1-14.67,2.1-7.75,0-14.96-1.52-21.63-4.57-6.67-3.05-12.35-7.49-17.05-13.34l21.72-15.05c4.19,6.73,9.78,10.1,16.77,10.1,2.67,0,4.95-.67,6.86-2,1.91-1.33,2.86-2.89,2.86-4.67s-1.11-3.27-3.33-4.48c-2.22-1.21-4.99-2.38-8.29-3.52-3.3-1.14-6.86-2.41-10.67-3.81-3.81-1.4-7.37-3.21-10.67-5.43-3.3-2.22-6.07-5.05-8.29-8.48-2.22-3.43-3.33-7.68-3.33-12.77,0-4.57.92-8.64,2.76-12.19,1.84-3.55,4.35-6.6,7.53-9.15,3.17-2.54,6.95-4.48,11.34-5.81,4.38-1.33,9.05-2,14-2,6.86,0,13.37,1.27,19.53,3.81,6.16,2.54,11.46,6.35,15.91,11.43l-21.72,15.05c-1.91-2.54-4.03-4.41-6.38-5.62-2.35-1.21-4.67-1.81-6.95-1.81-2.54,0-4.48.64-5.81,1.91-1.33,1.27-2,2.73-2,4.38Z"/>
  </g>
</svg>
